<mxfile host="app.diagrams.net" modified="2021-07-28T16:33:16.402Z" agent="5.0 (Windows NT 10.0; Win64; x64) AppleWebKit/537.36 (KHTML, like Gecko) Chrome/92.0.4515.107 Safari/537.36" etag="jNh_Pk6ipe3_O2_3vHUi" version="14.8.4" type="github">
  <diagram id="WL8thAtnPLQq1xH2uDU1" name="Page-1">
    <mxGraphModel dx="1999" dy="1162" grid="0" gridSize="10" guides="1" tooltips="1" connect="1" arrows="1" fold="1" page="1" pageScale="1" pageWidth="850" pageHeight="1100" math="0" shadow="0">
      <root>
        <mxCell id="0" />
        <mxCell id="1" parent="0" />
        <mxCell id="rSd8OrpAWe6BXz_9C6j9-1" value="dscenter" style="rounded=0;whiteSpace=wrap;html=1;fillColor=#fff2cc;strokeColor=#d6b656;" vertex="1" parent="1">
          <mxGeometry x="300" y="100" width="120" height="60" as="geometry" />
        </mxCell>
        <mxCell id="rSd8OrpAWe6BXz_9C6j9-5" style="edgeStyle=orthogonalEdgeStyle;rounded=0;orthogonalLoop=1;jettySize=auto;html=1;exitX=0.5;exitY=0;exitDx=0;exitDy=0;entryX=0.5;entryY=1;entryDx=0;entryDy=0;" edge="1" parent="1" source="rSd8OrpAWe6BXz_9C6j9-2" target="rSd8OrpAWe6BXz_9C6j9-1">
          <mxGeometry relative="1" as="geometry">
            <Array as="points">
              <mxPoint x="200" y="190" />
              <mxPoint x="360" y="190" />
            </Array>
          </mxGeometry>
        </mxCell>
        <mxCell id="rSd8OrpAWe6BXz_9C6j9-2" value="dsa" style="rounded=0;whiteSpace=wrap;html=1;fillColor=#d5e8d4;strokeColor=#82b366;" vertex="1" parent="1">
          <mxGeometry x="140" y="250" width="120" height="60" as="geometry" />
        </mxCell>
        <mxCell id="rSd8OrpAWe6BXz_9C6j9-15" style="edgeStyle=orthogonalEdgeStyle;rounded=0;orthogonalLoop=1;jettySize=auto;html=1;entryX=0.5;entryY=1;entryDx=0;entryDy=0;" edge="1" parent="1" source="rSd8OrpAWe6BXz_9C6j9-3" target="rSd8OrpAWe6BXz_9C6j9-1">
          <mxGeometry relative="1" as="geometry" />
        </mxCell>
        <mxCell id="rSd8OrpAWe6BXz_9C6j9-3" value="dsa" style="rounded=0;whiteSpace=wrap;html=1;fillColor=#d5e8d4;strokeColor=#82b366;" vertex="1" parent="1">
          <mxGeometry x="300" y="250" width="120" height="60" as="geometry" />
        </mxCell>
        <mxCell id="rSd8OrpAWe6BXz_9C6j9-7" style="edgeStyle=orthogonalEdgeStyle;rounded=0;orthogonalLoop=1;jettySize=auto;html=1;exitX=0.5;exitY=0;exitDx=0;exitDy=0;" edge="1" parent="1" source="rSd8OrpAWe6BXz_9C6j9-4">
          <mxGeometry relative="1" as="geometry">
            <mxPoint x="510" y="245" as="sourcePoint" />
            <mxPoint x="360" y="160" as="targetPoint" />
            <Array as="points">
              <mxPoint x="510" y="190" />
              <mxPoint x="360" y="190" />
            </Array>
          </mxGeometry>
        </mxCell>
        <mxCell id="rSd8OrpAWe6BXz_9C6j9-4" value="dsa" style="rounded=0;whiteSpace=wrap;html=1;fillColor=#f8cecc;strokeColor=#b85450;" vertex="1" parent="1">
          <mxGeometry x="450" y="250" width="120" height="60" as="geometry" />
        </mxCell>
        <mxCell id="rSd8OrpAWe6BXz_9C6j9-9" value="c" style="shape=umlDestroy;whiteSpace=wrap;html=1;strokeWidth=3;fillColor=#d80073;strokeColor=#A50040;fontColor=#ffffff;" vertex="1" parent="1">
          <mxGeometry x="495" y="230" width="30" height="30" as="geometry" />
        </mxCell>
        <mxCell id="rSd8OrpAWe6BXz_9C6j9-34" style="edgeStyle=orthogonalEdgeStyle;rounded=0;orthogonalLoop=1;jettySize=auto;html=1;exitX=1;exitY=0.5;exitDx=0;exitDy=0;" edge="1" parent="1" source="rSd8OrpAWe6BXz_9C6j9-16" target="rSd8OrpAWe6BXz_9C6j9-33">
          <mxGeometry relative="1" as="geometry" />
        </mxCell>
        <mxCell id="rSd8OrpAWe6BXz_9C6j9-38" style="edgeStyle=orthogonalEdgeStyle;rounded=0;orthogonalLoop=1;jettySize=auto;html=1;exitX=0.75;exitY=0;exitDx=0;exitDy=0;entryX=0.5;entryY=1;entryDx=0;entryDy=0;" edge="1" parent="1" source="rSd8OrpAWe6BXz_9C6j9-16" target="rSd8OrpAWe6BXz_9C6j9-26">
          <mxGeometry relative="1" as="geometry">
            <mxPoint x="442" y="655" as="targetPoint" />
          </mxGeometry>
        </mxCell>
        <mxCell id="rSd8OrpAWe6BXz_9C6j9-46" style="edgeStyle=orthogonalEdgeStyle;rounded=0;orthogonalLoop=1;jettySize=auto;html=1;exitX=0.25;exitY=0;exitDx=0;exitDy=0;entryX=0;entryY=0.5;entryDx=0;entryDy=0;" edge="1" parent="1" source="rSd8OrpAWe6BXz_9C6j9-16" target="rSd8OrpAWe6BXz_9C6j9-26">
          <mxGeometry relative="1" as="geometry" />
        </mxCell>
        <mxCell id="rSd8OrpAWe6BXz_9C6j9-16" value="dscenter&lt;br&gt;21.1.1.1" style="rounded=0;whiteSpace=wrap;html=1;fillColor=#fff2cc;strokeColor=#d6b656;" vertex="1" parent="1">
          <mxGeometry x="175" y="770" width="120" height="60" as="geometry" />
        </mxCell>
        <mxCell id="rSd8OrpAWe6BXz_9C6j9-24" value="dscenter&lt;br&gt;21.1.1.2" style="rounded=0;whiteSpace=wrap;html=1;fillColor=#fff2cc;strokeColor=#d6b656;" vertex="1" parent="1">
          <mxGeometry x="631" y="773" width="120" height="60" as="geometry" />
        </mxCell>
        <mxCell id="rSd8OrpAWe6BXz_9C6j9-37" style="edgeStyle=orthogonalEdgeStyle;rounded=0;orthogonalLoop=1;jettySize=auto;html=1;exitX=0.5;exitY=1;exitDx=0;exitDy=0;entryX=0.5;entryY=0;entryDx=0;entryDy=0;" edge="1" parent="1" source="rSd8OrpAWe6BXz_9C6j9-26" target="rSd8OrpAWe6BXz_9C6j9-16">
          <mxGeometry relative="1" as="geometry">
            <Array as="points">
              <mxPoint x="445" y="657" />
              <mxPoint x="445" y="685" />
              <mxPoint x="235" y="685" />
            </Array>
          </mxGeometry>
        </mxCell>
        <mxCell id="rSd8OrpAWe6BXz_9C6j9-40" style="edgeStyle=orthogonalEdgeStyle;rounded=0;orthogonalLoop=1;jettySize=auto;html=1;exitX=0.85;exitY=0.95;exitDx=0;exitDy=0;exitPerimeter=0;" edge="1" parent="1" source="rSd8OrpAWe6BXz_9C6j9-26" target="rSd8OrpAWe6BXz_9C6j9-24">
          <mxGeometry relative="1" as="geometry">
            <Array as="points">
              <mxPoint x="498" y="716" />
              <mxPoint x="691" y="716" />
            </Array>
          </mxGeometry>
        </mxCell>
        <mxCell id="rSd8OrpAWe6BXz_9C6j9-26" value="tcaplus" style="shape=cylinder;whiteSpace=wrap;html=1;boundedLbl=1;backgroundOutline=1;" vertex="1" parent="1">
          <mxGeometry x="418" y="592" width="94" height="65" as="geometry" />
        </mxCell>
        <mxCell id="rSd8OrpAWe6BXz_9C6j9-32" value="2. 设置自己为master" style="text;html=1;align=center;verticalAlign=middle;resizable=0;points=[];autosize=1;strokeColor=none;" vertex="1" parent="1">
          <mxGeometry x="264" y="713" width="120" height="18" as="geometry" />
        </mxCell>
        <mxCell id="rSd8OrpAWe6BXz_9C6j9-45" style="edgeStyle=orthogonalEdgeStyle;rounded=0;orthogonalLoop=1;jettySize=auto;html=1;exitX=0;exitY=0.75;exitDx=0;exitDy=0;entryX=1;entryY=0.75;entryDx=0;entryDy=0;" edge="1" parent="1" source="rSd8OrpAWe6BXz_9C6j9-33" target="rSd8OrpAWe6BXz_9C6j9-16">
          <mxGeometry relative="1" as="geometry" />
        </mxCell>
        <mxCell id="rSd8OrpAWe6BXz_9C6j9-33" value="tbuspp" style="rounded=1;whiteSpace=wrap;html=1;" vertex="1" parent="1">
          <mxGeometry x="438" y="770" width="120" height="60" as="geometry" />
        </mxCell>
        <mxCell id="rSd8OrpAWe6BXz_9C6j9-35" value="3. tbuspp注册21.X.X.0" style="text;html=1;align=center;verticalAlign=middle;resizable=0;points=[];autosize=1;strokeColor=none;" vertex="1" parent="1">
          <mxGeometry x="302" y="780" width="129" height="18" as="geometry" />
        </mxCell>
        <mxCell id="rSd8OrpAWe6BXz_9C6j9-36" value="1. 查询master信息" style="edgeLabel;html=1;align=center;verticalAlign=middle;resizable=0;points=[];" vertex="1" connectable="0" parent="1">
          <mxGeometry x="283" y="674" as="geometry" />
        </mxCell>
        <mxCell id="rSd8OrpAWe6BXz_9C6j9-41" value="查询master信息" style="edgeLabel;html=1;align=center;verticalAlign=middle;resizable=0;points=[];" vertex="1" connectable="0" parent="1">
          <mxGeometry x="588" y="701" as="geometry" />
        </mxCell>
        <mxCell id="rSd8OrpAWe6BXz_9C6j9-42" value="5. tbuspp收发信息" style="text;html=1;align=center;verticalAlign=middle;resizable=0;points=[];autosize=1;strokeColor=none;" vertex="1" parent="1">
          <mxGeometry x="313" y="818" width="107" height="18" as="geometry" />
        </mxCell>
        <mxCell id="rSd8OrpAWe6BXz_9C6j9-47" value="4. 定期续租" style="text;html=1;align=center;verticalAlign=middle;resizable=0;points=[];autosize=1;strokeColor=none;" vertex="1" parent="1">
          <mxGeometry x="273" y="604" width="71" height="18" as="geometry" />
        </mxCell>
      </root>
    </mxGraphModel>
  </diagram>
</mxfile>
